<svg height="512pt" viewBox="0 0 512 512" width="512pt" xmlns="http://www.w3.org/2000/svg"><path d="m165.332031 448c-2.261719 0-4.542969-.46875-6.675781-1.472656-5.695312-2.601563-9.324219-8.277344-9.324219-14.527344v-168.980469c0-7.019531-2.855469-13.910156-7.808593-18.859375l-124.328126-124.246094c-11.09375-11.070312-17.195312-25.8125-17.195312-41.492187v-41.089844c0-20.585937 16.746094-37.332031 37.332031-37.332031h336c20.589844 0 37.335938 16.746094 37.335938 37.332031v40.640625c0 15.828125-6.53125 31.234375-17.921875 42.21875l-128.574219 124.054688c-5.207031 5.011718-8.171875 12.011718-8.171875 19.21875v84.910156c0 17.148438-7.464844 33.386719-20.480469 44.542969l-59.753906 51.21875c-2.964844 2.539062-6.675781 3.863281-10.433594 3.863281zm-128-416c-2.941406 0-5.332031 2.390625-5.332031 5.332031v41.089844c0 7.125 2.773438 13.824219 7.828125 18.878906l124.308594 124.222657c10.925781 10.902343 17.195312 26.027343 17.195312 41.496093v134.207031l33.34375-28.585937c5.910157-5.078125 9.324219-12.4375 9.324219-20.246094v-84.90625c0-15.828125 6.527344-31.230469 17.921875-42.21875l128.574219-124.054687c5.183594-4.992188 8.148437-11.988282 8.148437-19.199219v-40.683594c0-2.941406-2.386719-5.332031-5.332031-5.332031zm0 0"/><path d="m474.667969 512h-138.667969c-20.585938 0-37.332031-16.746094-37.332031-37.332031v-181.335938c0-20.585937 16.746093-37.332031 37.332031-37.332031h138.667969c20.585937 0 37.332031 16.746094 37.332031 37.332031v181.335938c0 20.585937-16.746094 37.332031-37.332031 37.332031zm-138.667969-224c-2.945312 0-5.332031 2.390625-5.332031 5.332031v181.335938c0 2.941406 2.386719 5.332031 5.332031 5.332031h138.667969c2.941406 0 5.332031-2.390625 5.332031-5.332031v-181.335938c0-2.941406-2.390625-5.332031-5.332031-5.332031zm0 0"/><path d="m432 368h-53.332031c-8.832031 0-16-7.167969-16-16s7.167969-16 16-16h53.332031c8.832031 0 16 7.167969 16 16s-7.167969 16-16 16zm0 0"/><path d="m432 432h-53.332031c-8.832031 0-16-7.167969-16-16s7.167969-16 16-16h53.332031c8.832031 0 16 7.167969 16 16s-7.167969 16-16 16zm0 0"/></svg>